<svg width="100" height="25" viewBox="0 0 100 25" fill="none" xmlns="http://www.w3.org/2000/svg">
<rect width="100" height="25" fill="#3B5998"/>
<path d="M29.9941 14.2731C29.9941 16.1511 29.4598 17.592 26.2056 17.592C25.3637 17.592 24.0847 17.5111 23 17.333V6.3238L25.3314 6V9.82083C25.9628 9.57798 26.7075 9.3837 27.5656 9.3837C29.3141 9.3837 29.9941 10.4684 29.9941 12.2331V14.2731ZM25.3314 11.8446V15.5359C25.6713 15.5683 25.9628 15.5683 26.2866 15.5683C27.4522 15.5683 27.6627 15.034 27.6627 14.2893V12.2493C27.6627 11.7312 27.436 11.4074 26.8208 11.4074C26.3189 11.4074 25.7685 11.6179 25.3314 11.8446Z" fill="white"/>
<path d="M33.5414 17.4301H31.2101V6.3238L33.5414 6V17.4301Z" fill="white"/>
<path d="M35.0862 9.5456H37.4175V14.7588C37.4175 15.1149 37.5794 15.3254 37.9842 15.3254C38.4051 15.3254 39.1822 15.034 39.6841 14.7588V9.5456H42.0155V17.4301H40.2831L40.0403 16.8311C39.0689 17.3006 37.8061 17.592 36.8994 17.592C35.5557 17.592 35.0862 16.5882 35.0862 15.0664V9.5456Z" fill="white"/>
<path d="M49.7985 14.3054H45.5568V14.5321C45.5568 15.4387 45.9129 15.6816 46.9815 15.6816C47.71 15.6816 48.6814 15.5521 49.3776 15.3416L49.7176 17.0901C49.0052 17.3492 47.8557 17.592 46.7548 17.592C44.1968 17.592 43.2254 16.3292 43.2254 14.3864V12.5407C43.2254 10.8408 43.9863 9.3837 46.6091 9.3837C49.2319 9.3837 49.7985 10.9379 49.7985 12.6541V14.3054ZM47.5967 12.5569V12.2169C47.5967 11.6665 47.4348 11.2132 46.6253 11.2132C45.8158 11.2132 45.5568 11.6665 45.5568 12.2169V12.5569H47.5967Z" fill="white"/>
<path d="M57.2026 17.4301L55.6646 12.2817L54.1427 17.4301H51.6171L50.2572 9.5456H52.3942L53.139 14.1597L54.5151 9.5456H56.8465L58.2064 14.1597L58.9512 9.5456H61.0882L59.7283 17.4301H57.2026Z" fill="white"/>
<path d="M64.2789 8.55801H61.9476V6.08095H64.2789V8.55801ZM64.2789 17.4301H61.9476V9.5456H64.2789V17.4301Z" fill="white"/>
<path d="M70.3245 11.5855C69.6283 11.8608 68.7379 12.2655 68.236 12.6217V17.4301H65.9046V9.5456H67.8474L68.0093 10.3065C68.495 9.98273 69.4988 9.51322 70.1302 9.3837L70.3245 11.5855Z" fill="white"/>
<path d="M77.1684 14.3054H72.9266V14.5321C72.9266 15.4387 73.2828 15.6816 74.3513 15.6816C75.0799 15.6816 76.0513 15.5521 76.7474 15.3416L77.0874 17.0901C76.3751 17.3492 75.2256 17.592 74.1247 17.592C71.5667 17.592 70.5953 16.3292 70.5953 14.3864V12.5407C70.5953 10.8408 71.3562 9.3837 73.979 9.3837C76.6017 9.3837 77.1684 10.9379 77.1684 12.6541V14.3054ZM74.9666 12.5569V12.2169C74.9666 11.6665 74.8047 11.2132 73.9952 11.2132C73.1857 11.2132 72.9266 11.6665 72.9266 12.2169V12.5569H74.9666Z" fill="white"/>
</svg>
