<svg width="203" height="43" viewBox="0 0 203 43" fill="none" xmlns="http://www.w3.org/2000/svg">
<path d="M26.2107 30.6885C26.2107 37.655 24.2085 43 12.0133 43C8.85826 43 4.06509 42.6997 0 42.0391V1.20112L8.73691 0V14.1732C11.1032 13.2723 13.8941 12.5517 17.1098 12.5517C23.6625 12.5517 26.2107 16.5754 26.2107 23.1215V30.6885ZM8.73691 21.6802V35.3729C10.011 35.493 11.1032 35.493 12.3166 35.493C16.6851 35.493 17.4738 33.5112 17.4738 30.7486V23.1816C17.4738 21.2598 16.6244 20.0587 14.3188 20.0587C12.438 20.0587 10.3751 20.8394 8.73691 21.6802Z" fill="white"/>
<path d="M39.5048 42.3994H30.7678V1.20112L39.5048 0V42.3994Z" fill="white"/>
<path d="M45.2938 13.1522H54.0307V32.4902C54.0307 33.8115 54.6375 34.5922 56.1543 34.5922C57.7318 34.5922 60.6441 33.5112 62.5249 32.4902V13.1522H71.2619V42.3994H64.7698L63.8598 40.1774C60.2194 41.919 55.4869 43 52.0892 43C47.0533 43 45.2938 39.2765 45.2938 33.6313V13.1522Z" fill="white"/>
<path d="M100.429 30.8087H84.5331V31.6494C84.5331 35.0126 85.8679 35.9134 89.8724 35.9134C92.6026 35.9134 96.243 35.433 98.852 34.6522L100.126 41.1383C97.4565 42.0992 93.1487 43 89.0229 43C79.4366 43 75.7962 38.3156 75.7962 31.1089V24.2626C75.7962 17.9567 78.6479 12.5517 88.4769 12.5517C98.3059 12.5517 100.429 18.317 100.429 24.683V30.8087ZM92.1779 24.3226V23.0615C92.1779 21.0196 91.5712 19.338 88.5375 19.338C85.5039 19.338 84.5331 21.0196 84.5331 23.0615V24.3226H92.1779Z" fill="white"/>
<path d="M128.177 42.3994L122.413 23.3017L116.71 42.3994H107.245L102.148 13.1522H110.157L112.948 30.2682L118.105 13.1522H126.842L131.939 30.2682L134.73 13.1522H142.738L137.642 42.3994H128.177Z" fill="white"/>
<path d="M154.696 9.48883H145.959V0.300279H154.696V9.48883ZM154.696 42.3994H145.959V13.1522H154.696V42.3994Z" fill="white"/>
<path d="M177.352 20.7193C174.743 21.7402 171.406 23.2416 169.525 24.5628V42.3994H160.788V13.1522H168.069L168.676 15.9749C170.496 14.7737 174.258 13.0321 176.624 12.5517L177.352 20.7193Z" fill="white"/>
<path d="M203 30.8087H187.104V31.6494C187.104 35.0126 188.438 35.9134 192.443 35.9134C195.173 35.9134 198.814 35.433 201.423 34.6522L202.697 41.1383C200.027 42.0992 195.719 43 191.593 43C182.007 43 178.367 38.3156 178.367 31.1089V24.2626C178.367 17.9567 181.218 12.5517 191.047 12.5517C200.876 12.5517 203 18.317 203 24.683V30.8087ZM194.748 24.3226V23.0615C194.748 21.0196 194.142 19.338 191.108 19.338C188.074 19.338 187.104 21.0196 187.104 23.0615V24.3226H194.748Z" fill="white"/>
</svg>
