<svg width="264" height="52" viewBox="0 0 264 52" fill="none" xmlns="http://www.w3.org/2000/svg">
<g clip-path="url(#clip0_2680_7)">
<rect width="51.4302" height="51.4302" rx="4.11441" fill="url(#paint0_linear_2680_7)"/>
<g filter="url(#filter0_d_2680_7)">
<path d="M35.2719 32.712C35.2719 37.9195 33.3292 41.5624 24.336 41.5624C22.0094 41.5624 18.9411 41.6904 15.9434 41.1966V10.6698L22.3862 9.77197V20.3666C24.1312 19.6932 26.1893 19.1545 28.5606 19.1545C33.3928 19.1545 35.2719 22.1623 35.2719 27.0555V32.712ZM22.3862 25.9781V36.2136C23.3258 36.3033 24.1312 36.3033 25.026 36.3033C28.2474 36.3033 28.8291 34.8219 28.8291 32.7569V27.1004C28.8291 25.6639 28.2027 24.766 26.5025 24.766C25.1155 24.766 23.5942 25.3496 22.3862 25.9781Z" fill="white"/>
</g>
<ellipse cx="25.7149" cy="4.11447" rx="39.0869" ry="18.5149" fill="url(#paint1_linear_2680_7)"/>
</g>
<path d="M87.2107 35.6885C87.2107 42.655 85.2085 48 73.0133 48C69.8583 48 65.0651 47.6997 61 47.0391V6.20112L69.7369 5V19.1732C72.1032 18.2723 74.8941 17.5517 78.1098 17.5517C84.6625 17.5517 87.2107 21.5754 87.2107 28.1215V35.6885ZM69.7369 26.6802V40.3729C71.011 40.493 72.1032 40.493 73.3166 40.493C77.6851 40.493 78.4738 38.5112 78.4738 35.7486V28.1816C78.4738 26.2598 77.6244 25.0587 75.3188 25.0587C73.438 25.0587 71.3751 25.8394 69.7369 26.6802Z" fill="white"/>
<path d="M100.505 47.3994H91.7678V6.20112L100.505 5V47.3994Z" fill="white"/>
<path d="M106.294 18.1522H115.031V37.4902C115.031 38.8115 115.637 39.5922 117.154 39.5922C118.732 39.5922 121.644 38.5112 123.525 37.4902V18.1522H132.262V47.3994H125.77L124.86 45.1774C121.219 46.919 116.487 48 113.089 48C108.053 48 106.294 44.2765 106.294 38.6313V18.1522Z" fill="white"/>
<path d="M161.429 35.8087H145.533V36.6494C145.533 40.0126 146.868 40.9134 150.872 40.9134C153.603 40.9134 157.243 40.433 159.852 39.6522L161.126 46.1383C158.456 47.0992 154.149 48 150.023 48C140.437 48 136.796 43.3156 136.796 36.1089V29.2626C136.796 22.9567 139.648 17.5517 149.477 17.5517C159.306 17.5517 161.429 23.317 161.429 29.683V35.8087ZM153.178 29.3226V28.0615C153.178 26.0196 152.571 24.338 149.538 24.338C146.504 24.338 145.533 26.0196 145.533 28.0615V29.3226H153.178Z" fill="white"/>
<path d="M189.177 47.3994L183.413 28.3017L177.71 47.3994H168.245L163.148 18.1522H171.157L173.948 35.2682L179.105 18.1522H187.842L192.939 35.2682L195.73 18.1522H203.738L198.642 47.3994H189.177Z" fill="white"/>
<path d="M215.696 14.4888H206.959V5.30028H215.696V14.4888ZM215.696 47.3994H206.959V18.1522H215.696V47.3994Z" fill="white"/>
<path d="M238.352 25.7193C235.743 26.7402 232.406 28.2416 230.525 29.5628V47.3994H221.788V18.1522H229.069L229.676 20.9749C231.496 19.7737 235.258 18.0321 237.624 17.5517L238.352 25.7193Z" fill="white"/>
<path d="M264 35.8087H248.104V36.6494C248.104 40.0126 249.438 40.9134 253.443 40.9134C256.173 40.9134 259.814 40.433 262.423 39.6522L263.697 46.1383C261.027 47.0992 256.719 48 252.593 48C243.007 48 239.367 43.3156 239.367 36.1089V29.2626C239.367 22.9567 242.218 17.5517 252.047 17.5517C261.876 17.5517 264 23.317 264 29.683V35.8087ZM255.748 29.3226V28.0615C255.748 26.0196 255.142 24.338 252.108 24.338C249.074 24.338 248.104 26.0196 248.104 28.0615V29.3226H255.748Z" fill="white"/>
<defs>
<filter id="filter0_d_2680_7" x="11.8289" y="5.65756" width="27.5574" height="40.034" filterUnits="userSpaceOnUse" color-interpolation-filters="sRGB">
<feFlood flood-opacity="0" result="BackgroundImageFix"/>
<feColorMatrix in="SourceAlpha" type="matrix" values="0 0 0 0 0 0 0 0 0 0 0 0 0 0 0 0 0 0 127 0" result="hardAlpha"/>
<feOffset/>
<feGaussianBlur stdDeviation="2.05721"/>
<feComposite in2="hardAlpha" operator="out"/>
<feColorMatrix type="matrix" values="0 0 0 0 0 0 0 0 0 0 0 0 0 0 0 0 0 0 0.25 0"/>
<feBlend mode="normal" in2="BackgroundImageFix" result="effect1_dropShadow_2680_7"/>
<feBlend mode="normal" in="SourceGraphic" in2="effect1_dropShadow_2680_7" result="shape"/>
</filter>
<linearGradient id="paint0_linear_2680_7" x1="25.7151" y1="0" x2="25.7151" y2="51.4302" gradientUnits="userSpaceOnUse">
<stop stop-color="#3B5998"/>
<stop offset="1" stop-color="#2D4578"/>
</linearGradient>
<linearGradient id="paint1_linear_2680_7" x1="25.7149" y1="-14.4004" x2="25.7149" y2="22.6293" gradientUnits="userSpaceOnUse">
<stop stop-color="white" stop-opacity="0.35"/>
<stop offset="1" stop-color="white" stop-opacity="0.05"/>
</linearGradient>
<clipPath id="clip0_2680_7">
<rect width="51.4302" height="51.4302" rx="4.11441" fill="white"/>
</clipPath>
</defs>
</svg>
