<svg width="256" height="256" viewBox="0 0 256 256" fill="none" xmlns="http://www.w3.org/2000/svg">
<g clip-path="url(#clip0_2678_2)">
<rect width="256" height="256" rx="20.48" fill="url(#paint0_linear_2678_2)"/>
<g filter="url(#filter0_d_2678_2)">
<path d="M175.57 162.827C175.57 188.748 165.9 206.881 121.135 206.881C109.555 206.881 94.2814 207.518 79.3599 205.06V53.1093L111.43 48.6401V101.376C120.116 98.0242 130.36 95.3427 142.164 95.3427C166.216 95.3427 175.57 110.314 175.57 134.671V162.827ZM111.43 129.308V180.256C116.107 180.703 120.116 180.703 124.57 180.703C140.605 180.703 143.5 173.329 143.5 163.05V134.895C143.5 127.744 140.382 123.275 131.919 123.275C125.015 123.275 117.443 126.18 111.43 129.308Z" fill="white"/>
</g>
<ellipse cx="128" cy="20.4798" rx="194.56" ry="92.16" fill="url(#paint1_linear_2678_2)"/>
</g>
<defs>
<filter id="filter0_d_2678_2" x="58.8799" y="28.1601" width="137.17" height="199.275" filterUnits="userSpaceOnUse" color-interpolation-filters="sRGB">
<feFlood flood-opacity="0" result="BackgroundImageFix"/>
<feColorMatrix in="SourceAlpha" type="matrix" values="0 0 0 0 0 0 0 0 0 0 0 0 0 0 0 0 0 0 127 0" result="hardAlpha"/>
<feOffset/>
<feGaussianBlur stdDeviation="10.24"/>
<feComposite in2="hardAlpha" operator="out"/>
<feColorMatrix type="matrix" values="0 0 0 0 0 0 0 0 0 0 0 0 0 0 0 0 0 0 0.25 0"/>
<feBlend mode="normal" in2="BackgroundImageFix" result="effect1_dropShadow_2678_2"/>
<feBlend mode="normal" in="SourceGraphic" in2="effect1_dropShadow_2678_2" result="shape"/>
</filter>
<linearGradient id="paint0_linear_2678_2" x1="128" y1="0" x2="128" y2="256" gradientUnits="userSpaceOnUse">
<stop stop-color="#3B5998"/>
<stop offset="1" stop-color="#2D4578"/>
</linearGradient>
<linearGradient id="paint1_linear_2678_2" x1="128" y1="-71.6802" x2="128" y2="112.64" gradientUnits="userSpaceOnUse">
<stop stop-color="white" stop-opacity="0.35"/>
<stop offset="1" stop-color="white" stop-opacity="0.05"/>
</linearGradient>
<clipPath id="clip0_2678_2">
<rect width="256" height="256" rx="20.48" fill="white"/>
</clipPath>
</defs>
</svg>
